2.2Hz3min_grf.mot
version=1
nRows=10
nColumns 19
inDegrees=yes
endheader
time	1_ground_force_vx	1_ground_force_vy	1_ground_force_vz	1_ground_force_px	1_ground_force_py	1_ground_force_pz	1_ground_torque_x	1_ground_torque_y	1_ground_torque_z	2_ground_force_vx	2_ground_force_vy	2_ground_force_vz	2_ground_force_px	2_ground_force_py	2_ground_force_pz	2_ground_torque_x	2_ground_torque_y	2_ground_torque_z
            0.005000	            1.405302	          216.898030	           -7.969814	           -0.218813	            0.006282	           -0.418368	           -0.001328	           -0.205011	            0.007533	            3.619547	          348.031131	            8.748266	           -0.169714	            0.005852	           -0.692484	            0.003331	            0.320317	            0.008052
            0.005500	            1.314191	          214.374097	           -7.934552	           -0.219463	            0.006282	           -0.418530	           -0.001705	           -0.278054	            0.010292	            3.723840	          345.085431	            8.643857	           -0.169614	            0.005854	           -0.692913	            0.002975	            0.275730	            0.006907
            0.006000	            1.637326	          211.486959	           -7.259877	           -0.218749	            0.006281	           -0.418315	           -0.001720	           -0.222165	            0.007626	            3.829441	          341.771617	            8.491206	           -0.169719	            0.005852	           -0.692540	            0.002284	            0.203808	            0.005064
            0.006500	            1.639221	          207.338882	           -6.819096	           -0.218540	            0.006285	           -0.419220	           -0.001485	           -0.187776	            0.006176	            4.172574	          337.538219	            8.241313	           -0.169550	            0.005852	           -0.692325	            0.002818	            0.227954	            0.005566
            0.007000	            1.593740	          205.355951	           -6.827485	           -0.218404	            0.006281	           -0.418246	           -0.001464	           -0.188699	            0.006274	            4.278339	          334.223065	            8.464087	           -0.169323	            0.005853	           -0.692385	            0.002841	            0.221941	            0.005621
            0.007500	            1.503722	          201.208250	           -6.478188	           -0.218396	            0.006285	           -0.419105	           -0.001471	           -0.196872	            0.006339	            4.338461	          330.540405	            8.403998	           -0.168908	            0.005855	           -0.692400	            0.003200	            0.243807	            0.006199
            0.008000	            1.412317	          199.045241	           -6.533092	           -0.218164	            0.006282	           -0.418541	           -0.001658	           -0.233627	            0.007668	            4.162257	          327.410051	            8.158267	           -0.168765	            0.005855	           -0.692310	            0.003614	            0.284296	            0.007084
            0.008500	            1.597204	          197.600988	           -6.035316	           -0.217713	            0.006275	           -0.416870	           -0.001556	           -0.192521	            0.005880	            4.455361	          324.096077	            8.240177	           -0.168810	            0.005855	           -0.692258	            0.003046	            0.221542	            0.005633
            0.009000	            1.506404	          193.995264	           -5.958836	           -0.217446	            0.006277	           -0.417148	           -0.001681	           -0.216543	            0.006651	            4.469983	          320.044799	            8.225721	           -0.168362	            0.005856	           -0.692051	            0.003254	            0.233013	            0.005989
            0.009500	            1.599414	          191.109654	           -5.650439	           -0.217468	            0.006281	           -0.418243	           -0.001242	           -0.148385	            0.004387	            4.384176	          317.835380	            8.030164	           -0.168512	            0.005857	           -0.692543	            0.003516	            0.254881	            0.006440
